<svg width="28" height="28" viewBox="0 0 28 28" fill="none" xmlns="http://www.w3.org/2000/svg">
<rect width="28" height="28" rx="14" fill="white"/>
<path d="M20.7722 7.22777C20.4686 6.92408 19.9762 6.92408 19.6725 7.22777L14 12.9003L8.32753 7.22777C8.02385 6.92408 7.53146 6.92408 7.22777 7.22777C6.92408 7.53146 6.92408 8.02384 7.22777 8.32753L12.9002 14L7.22779 19.6724C6.92409 19.9762 6.92409 20.4685 7.22779 20.7722C7.53148 21.0759 8.02386 21.0759 8.32755 20.7722L14 15.0998L19.6725 20.7722C19.9762 21.0759 20.4686 21.0759 20.7722 20.7722C21.0759 20.4685 21.0759 19.9762 20.7722 19.6725L15.0997 14L20.7722 8.32753C21.0759 8.02384 21.0759 7.53146 20.7722 7.22777Z" fill="black"/>
</svg>
