<svg width="30" height="26" viewBox="0 0 30 26" fill="none" xmlns="http://www.w3.org/2000/svg">
<path fill-rule="evenodd" clip-rule="evenodd" d="M22.9394 0.423064C23.5251 -0.141021 24.4749 -0.141021 25.0607 0.423064L29.5607 4.7564C30.1464 5.3205 30.1464 6.23507 29.5607 6.79917L25.0607 11.1325C24.4749 11.6965 23.5251 11.6965 22.9394 11.1325C22.3536 10.5684 22.3536 9.65384 22.9394 9.08974L24.7287 7.36668H22.7009C20.4009 7.36668 18.3626 8.4514 16.5402 10.0265C15.9237 10.5593 14.9753 10.5101 14.4219 9.91633C13.8686 9.32265 13.9199 8.40939 14.5364 7.87655C16.6376 6.06051 19.3632 4.47778 22.7009 4.47778H25.0287L22.9394 2.46583C22.3536 1.90173 22.3536 0.987164 22.9394 0.423064ZM0 5.92223C0 5.12449 0.671581 4.47778 1.5 4.47778C7.23695 4.47778 10.8609 8.7325 13.7916 12.2388C13.9016 12.3705 14.0108 12.5014 14.1192 12.6313C15.5321 14.3246 16.8129 15.8596 18.197 17.0206C19.6553 18.2441 21.0812 18.9222 22.6937 18.9222H25.0287L22.9394 16.9103C22.3536 16.3462 22.3536 15.4316 22.9394 14.8675C23.5251 14.3035 24.4749 14.3035 25.0607 14.8675L29.5607 19.2009C30.1464 19.7649 30.1464 20.6796 29.5607 21.2436L25.0607 25.577C24.4749 26.141 23.5251 26.141 22.9394 25.577C22.3536 25.0129 22.3536 24.0983 22.9394 23.5342L24.7287 21.8111H22.6937C20.0966 21.8111 17.9963 20.6838 16.2263 19.1989C14.7543 17.964 13.41 16.3924 12.1377 14.8693C10.8793 16.3828 9.53815 17.9337 8.06677 19.1622C6.26545 20.666 4.12631 21.8111 1.50804 21.8111C0.679621 21.8111 0.00803984 21.1645 0.00803984 20.3667C0.00803984 19.5689 0.679621 18.9222 1.50804 18.9222C3.141 18.9222 4.60693 18.2272 6.10159 16.9793C7.50269 15.8096 8.80228 14.2649 10.1987 12.5772C7.57039 9.58 5.02823 7.36668 1.5 7.36668C0.671581 7.36668 0 6.71998 0 5.92223Z" fill="black"/>
</svg>
