<svg width="23" height="25" viewBox="0 0 23 25" fill="none" xmlns="http://www.w3.org/2000/svg">
<path d="M14.5473 0.0230079C12.8818 -0.159363 11.3013 0.757512 10.7303 2.23745C10.6016 2.57098 10.5564 2.93158 10.5352 3.30956C10.5193 3.59471 10.5154 3.93461 10.5146 4.33494L10.5142 4.89627C10.5142 4.90221 10.5142 4.90813 10.5142 4.91403V14.866C9.39748 13.8821 7.89514 13.2795 6.24282 13.2795C2.79501 13.2795 0 15.9032 0 19.1398C0 22.3763 2.79501 25 6.24282 25C9.69069 25 12.4856 22.3763 12.4856 19.1398V8.29596C12.6234 8.36488 12.7725 8.43484 12.936 8.51146L16.4944 10.1816C17.0442 10.4396 17.4916 10.6496 17.8581 10.7996C18.2277 10.9508 18.5915 11.0742 18.9669 11.1153C20.6323 11.2976 22.2127 10.3807 22.7838 8.90086C22.9126 8.56733 22.9577 8.20672 22.979 7.82874C22.9999 7.45389 22.9999 6.98441 22.9999 6.40746L23 6.30527C23.0001 5.87624 23.0003 5.54062 22.9355 5.22256C22.7685 4.40384 22.2863 3.67147 21.581 3.16517C21.3068 2.96848 20.987 2.81853 20.5782 2.62683L17.0198 0.956711C16.47 0.698675 16.0226 0.488693 15.6561 0.338696C15.2865 0.18744 14.9227 0.0641037 14.5473 0.0230079Z" fill="white"/>
</svg>
