<svg width="33" height="26" viewBox="0 0 33 26" fill="none" xmlns="http://www.w3.org/2000/svg">
<path d="M17.0673 0.133738C16.8015 0.0194431 16.51 -0.0227074 16.2226 0.0115886C15.9351 0.0458846 15.6619 0.155399 15.4309 0.328954L7.60909 6.47824H1.63636C1.20237 6.47824 0.786158 6.64964 0.47928 6.95472C0.172402 7.2598 0 7.67359 0 8.10504V17.8658C0 18.2973 0.172402 18.7111 0.47928 19.0161C0.786158 19.3212 1.20237 19.4926 1.63636 19.4926H7.60909L15.3491 25.6419C15.637 25.8715 15.9945 25.9977 16.3636 25.9998C16.6081 26.0038 16.8497 25.9479 17.0673 25.8371C17.3457 25.7053 17.581 25.4979 17.7461 25.2388C17.9111 24.9798 17.9991 24.6796 18 24.373V1.59786C17.9991 1.29123 17.9111 0.991086 17.7461 0.73204C17.581 0.472993 17.3457 0.265588 17.0673 0.133738ZM14.7273 20.9893L9.19636 16.5969C8.90846 16.3673 8.55092 16.2411 8.18182 16.239H3.27273V9.73184H8.18182C8.55092 9.72971 8.90846 9.60358 9.19636 9.37394L14.7273 4.98159V20.9893Z" fill="black"/>
</svg>
